<svg xmlns="http://www.w3.org/2000/svg" viewBox="0 0 512 512" fill="#9E9E9E"><path d="M414 0H98C76 0 57 18 57 41v430c0 23 19 41 41 41h316c22 0 41-18 41-41V41c0-23-19-41-41-41zM188 16h136v17H188V16zm0 33h136v19c0 5-4 8-8 8H196c-4 0-8-3-8-8V49zm8 44h120c13 0 24-11 24-25V49h66v316h-90c-5 0-8 4-8 8v90H106V49h66v19c0 14 11 25 24 25zm198 288-70 70v-70h70zm44 90c0 14-11 25-24 25H98c-13 0-24-11-24-25V41c0-14 11-25 24-25h74v17H98c-4 0-8 3-8 8v430c0 5 4 8 8 8h218l6-2 98-98 2-6V41c0-5-4-8-8-8h-74V16h74c13 0 24 11 24 25v430z"/><path d="M349 272h-3V128c0-5-4-8-8-8h-33c-4 0-8 3-8 8v120a8 8 0 1 0 16 0V136h17v136h-49V161c0-5-4-8-9-8h-32c-5 0-9 3-9 8v87a8 8 0 1 0 17 0v-79h16v103h-49v-79c0-4-4-8-8-8h-33c-4 0-8 4-8 8v55a8 8 0 1 0 16 0v-46h17v70h-36a8 8 0 1 0 0 17h186a8 8 0 1 0 0-17zM227 365h-64a8 8 0 1 0 0 16h64a8 8 0 1 0 0-16zM291 319H163a8 8 0 1 0 0 16h128a8 8 0 1 0 0-16z"/></svg>
