<svg xmlns="http://www.w3.org/2000/svg" viewBox="0 0 324 324"><path d="M70.46 163.44c.77 5.1 1.82 10.09 3.2 14.92-.98-.29-1.85-.63-2.62-1-.75-1.47-1.47-2.96-2.15-4.47l.04-.03c-.94-1.83-.67-5 1.53-9.42zM58.8 125.9c0-28.23 10.3-54.1 27.3-74.07-.45 6.41 0 13.75 1.36 21.88a153.19 153.19 0 0 0-6.23 12.7c-8.67 20.03-12.55 40.7-12.17 60.25a72.27 72.27 0 0 0-6.34 8.94 114.3 114.3 0 0 1-3.92-29.7zm42.18-8.15c-9.8 7.23-18.46 14.56-25.4 21.67a140.16 140.16 0 0 1 13.97-55.56 217.86 217.86 0 0 0 11.43 33.89zm1.45-81.64c2.7-2.15 5.52-4.17 8.42-6.06 3.16.11 6.68.93 10.47 2.4a138.78 138.78 0 0 0-24.8 26.77c-.39-10.8 1.63-18.83 5.9-23.11zm51.39-22.93a117.28 117.28 0 0 0-26.43 14.57 55.62 55.62 0 0 0-7.67-2.92 113.51 113.51 0 0 1 34.1-11.65zm36.7-.32a113.82 113.82 0 0 1 54.34 24.02 84.86 84.86 0 0 1 11.51 15.28c-25.83-.2-66.7 14.6-103.06 33.4a411.6 411.6 0 0 0-43.51 25.91c-5.31-12.8-9.2-25.14-11.37-36.45-.37-1.9-.68-3.74-.94-5.55a132.95 132.95 0 0 1 30.38-33.98c12.04 6.47 26.15 18.49 40.37 34.88 2.14-.99 4.28-1.95 6.4-2.9-14.28-16.7-28.27-29.03-40.81-36.35 17.6-12.12 37.36-18.66 56.68-18.26ZM76.03 185.68l.46 1.3-.85-1.36.39.06zM271 67.46l.31-.16c1.02 1.7 2 3.42 2.92 5.18-.18 1.1-.52 2.26-1.01 3.51l-.31-1.21c-.8-2.89-1.73-5.69-2.72-8.43.32.35.6.71.81 1.11zm-183.67 128a96.18 96.18 0 0 1-4.18-9.2l1.16.02c11 0 25.4-2.64 42.47-7.93-1.33-1.9-2.64-3.83-3.94-5.76-18.7 5.62-32.72 7.49-42.08 6.9a114.28 114.28 0 0 1-4.8-24.47c3-3.83 7.03-8.2 12.29-13.1 5.05-4.7 10.83-9.48 17.17-14.26a312.4 312.4 0 0 0 16.17 29.87 304.87 304.87 0 0 0 27.27 37.94h14.12c-10.83-11.8-21.91-26.36-32.37-43.45a302.78 302.78 0 0 1-16.49-30.68 390.96 390.96 0 0 1 44.03-26.4c50-25.85 87.14-34.1 103.74-31.9a104.52 104.52 0 0 1 6.59 21.26c-8.83 12.3-27.18 28.46-52.96 44.81a333.92 333.92 0 0 0-12.43-22.19 333.55 333.55 0 0 0-12.79-19.31c-2.06.88-4.16 1.78-6.3 2.74 4.61 6.4 9.1 13.16 13.35 20.1 4.52 7.39 8.68 14.83 12.43 22.22a418.5 418.5 0 0 1-62.9 31.36c1.34 1.91 2.67 3.77 4 5.58a417.55 417.55 0 0 0 61.84-30.97c8.4 17.48 14.46 34.52 17.53 49.67.5 2.47.9 4.85 1.23 7.16h6.8c-.37-2.73-.84-5.55-1.43-8.5-3.22-15.86-9.57-33.67-18.38-51.9 21.47-13.58 40.22-28.4 51.48-41.8 2.8 22.85-.88 47.22-10.84 70.22A142.09 142.09 0 0 1 240 195.47h8.17a148.72 148.72 0 0 0 16.92-29.4c11.38-26.26 14.94-54.3 10.35-80.14 1.1-1.7 2.06-3.38 2.85-5a113.7 113.7 0 0 1 9.23 44.98c0 26.15-8.83 50.27-23.66 69.56h13.03a124.3 124.3 0 0 0 21.2-69.56C298.09 57.02 242.05.98 173.16.98c-27.66 0-53.26 9.05-73.99 24.33l-.02-.03a21.4 21.4 0 0 0-3.85 3 124.74 124.74 0 0 0-25.87 167.19h17.91M18.05 323.49H2.08v-28.42h15.97V299H6.7v7.74h10.64v3.89H6.7v8.92h11.35v3.95m37.15 0h-5.32l-7.06-11.63-7.14 11.63h-4.95l9.38-14.74-8.77-13.68h5.14L43 305.82l6.54-10.75h4.98l-8.83 13.76 9.5 14.66m17.95-14.54h2.46c2.37 0 4.11-.42 5.21-1.25 1.1-.83 1.67-2.12 1.67-3.89 0-1.63-.5-2.84-1.5-3.65-.98-.8-2.53-1.2-4.63-1.2h-3.2zm14.09-5.29c0 2.97-.97 5.24-2.9 6.82s-4.68 2.37-8.25 2.37h-2.94v10.64h-4.62v-28.42h8.14c3.53 0 6.17.72 7.93 2.18 1.76 1.45 2.64 3.58 2.64 6.41m30.17 19.83h-15.97v-28.42h15.97V299h-11.36v7.74h10.65v3.89h-10.65v8.92h11.36v3.95m19.6-15.2h3.2c2.15 0 3.71-.4 4.68-1.21.96-.8 1.45-2 1.45-3.58 0-1.6-.53-2.76-1.57-3.46-1.04-.7-2.62-1.05-4.71-1.05h-3.06zm0 3.84v11.36h-4.62v-28.42h7.98c3.64 0 6.34.69 8.09 2.06s2.63 3.45 2.63 6.22c0 3.54-1.83 6.06-5.49 7.55l7.98 12.59h-5.25l-6.77-11.36H137m30.03 11.36h4.62v-28.42h-4.62Zm33.17 0L192 299.75h-.16c.22 3.53.33 6.83.33 9.91v13.83h-4.19v-28.42h6.5l7.85 22.6h.12l8.08-22.6h6.53v28.42h-4.45v-14.06a195.27 195.27 0 0 1 .29-9.64h-.15l-8.48 23.7h-4.08m49.2 0h-15.98v-28.42h15.98V299h-11.36v7.74h10.65v3.89h-10.65v8.92h11.36v3.95m38.51 0h-5.66l-13.89-22.65h-.15l.09 1.26c.19 2.41.27 4.62.27 6.6v14.79h-4.2v-28.42h5.61l13.86 22.53h.11a134.22 134.22 0 0 1-.27-7.65v-14.88h4.23v28.42m26.46 0h-4.61v-24.44h-8.31v-3.98h21.24v3.98h-8.32v24.44m-264.79-72.2a5610.29 5610.29 0 0 1-8.89-28.74 83.8 83.8 0 0 1-1.42-5.27c-1.18 4.58-4.56 15.92-10.15 34.01zm9.68 32.66-5.7-18.7H24.92l-5.7 18.7H1.28L29 205.08h20.36l27.83 78.87H59.25m45.47 0H88.07v-64.68H66.74V205.4h59.3v13.87h-21.32v64.68m31.5 0V205.4h16.67v64.8h31.86v13.75h-48.52m101-32.66a6874.08 6874.08 0 0 1-8.88-28.74 80.25 80.25 0 0 1-1.43-5.27c-1.18 4.58-4.56 15.92-10.15 34.01zm9.68 32.66-5.7-18.7h-28.63l-5.7 18.7h-17.93l27.71-78.87h20.37l27.82 78.87h-17.94m75.7-21.81c0 7.1-2.55 12.68-7.66 16.76-5.1 4.08-12.2 6.13-21.3 6.13-8.38 0-15.8-1.58-22.24-4.73v-15.47a91.72 91.72 0 0 0 13.46 4.99c3.67.97 7.02 1.45 10.07 1.45 3.65 0 6.46-.7 8.4-2.1 1.96-1.39 2.94-3.47 2.94-6.23 0-1.54-.43-2.9-1.3-4.1a14.43 14.43 0 0 0-3.78-3.47c-1.67-1.12-5.06-2.89-10.18-5.32-4.8-2.26-8.4-4.43-10.8-6.5a24.21 24.21 0 0 1-5.75-7.25 20.69 20.69 0 0 1-2.14-9.68c0-6.95 2.34-12.4 7.06-16.37 4.71-3.98 11.22-5.97 19.53-5.97 4.08 0 7.97.49 11.68 1.45 3.7.97 7.58 2.33 11.63 4.08l-5.37 12.95a78.98 78.98 0 0 0-10.4-3.6 33.45 33.45 0 0 0-8.08-1.02c-3.15 0-5.57.74-7.25 2.2a7.26 7.26 0 0 0-2.53 5.75c0 1.47.34 2.75 1.03 3.84.67 1.1 1.76 2.15 3.24 3.17 1.49 1.02 5 2.86 10.56 5.5 7.34 3.52 12.37 7.04 15.1 10.56 2.71 3.53 4.07 7.85 4.07 12.98" fill="#3a81c7"/></svg>