<svg xmlns="http://www.w3.org/2000/svg" viewBox="0 0 196.54 194.32"><g fill="#0053a1"><path d="M41.11 80.57c-.98.75-4.4 2.87-9.53 2.87-9.3 0-15.64-5.86-15.64-14.8 0-8.87 6.72-14.79 15.86-14.79 3.55 0 7.62 1.1 9.89 2.07a16.58 16.58 0 0 0-1.03 3.3l-.25.09c-1.76-1.95-4.58-3.63-8.76-3.63-5.3 0-11.41 4.3-11.41 12.86 0 8.34 6.22 12.77 11.78 12.77 5 0 7.4-2.33 9.54-4.14l.16.16zM64.15 81.4c0-.63.05-1.28.1-1.59a272 272 0 0 1-13.59.54c-.05-.75-.11-9.7-.04-11.08 1.2 0 7.59.08 10.44.38a8.38 8.38 0 0 1 0-3c-2.44.2-5.56.4-10.44.4 0-1.03.08-8.57.13-10.35 5.37 0 10.23.34 12.95.54a10.94 10.94 0 0 1 0-2.83c-1.43.09-6.05.2-8.53.2-2.48 0-6.31-.08-8.79-.2.17 3.5.33 7.1.33 10.66v7.1c0 3.56-.16 7.16-.33 10.75 2.52-.12 6.4-.2 8.91-.2h.37a222.75 222.75 0 0 1 8.6.2 9.6 9.6 0 0 1-.1-1.52zM73.4 68.93v3.29c0 3.55.17 7.14.33 10.7-.7-.12-1.97-.13-2.23-.13s-1.53 0-2.23.13c.16-3.56.32-7.15.32-10.7V65.1c0-3.56-.16-7.15-.32-10.7 1.57.12 3.55.2 5.13.2 1.57 0 3.14-.2 4.7-.2 4.68 0 8.96 1.37 8.96 6.57 0 5.51-5.49 7.48-8.63 7.9a629.6 629.6 0 0 0 11.68 14.04c-.83-.12-2.21-.13-2.59-.13-.38 0-1.8 0-2.59.13-1.63-2.49-6.87-10.33-10.42-14l-2.1.01zm2.77-1.51c3.41-.07 7.9-1.15 7.9-5.87 0-4.1-3.6-5.41-6.4-5.41-1.91 0-3.15.12-4.02.2-.12 3.02-.24 5.79-.24 8.76v2.28c.4.06 2.34.04 2.76.04zM120.1 54.39a10.4 10.4 0 0 1-3.57 0c.18 3.39.5 9.65.5 13.76 0 3.09 0 5.79-.05 7.32-1.5-1.6-18.75-19.45-20.5-21.35l-1.35-.02c.05 2.63.13 5.49.13 10.7 0 6.66-.1 13.75-.43 18.12a10.47 10.47 0 0 1 3.57 0c-.18-3.38-.5-9.65-.5-13.76 0-3.09.01-6.27.05-7.8 1.5 1.6 18.85 19.7 20.5 21.93l1.35.02c-.06-2.63-.13-5.59-.13-10.8 0-6.66.09-13.75.43-18.12zM44.87 128.84A68.64 68.64 0 0 1 34.12 94.1h-3.76a72.51 72.51 0 0 0 8.45 31.86c1.33 1.07 4.44 2.43 6.06 2.9z"/><path d="M196.53.72S103.14-.02 73.36 0c-4.66 0-7.78.33-8.8.4C27.8 2.78.14 35.03 0 70.2c-.03 10.23 2.7 21.75 7.1 37.31a9785.44 9785.44 0 0 0 12.7 44.13h3.73L9.73 105.1l.1-.07c10.14 19.57 33.5 35.3 60 35.3 14.3 0 27.56-4.01 38-11.39l.1.1-61.35 65.27h4.79s43.08-45.83 57.73-61.39c11.23-11.93 17.07-19.6 19.5-23.6 2.81-4.56 11.7-17.75 11.37-37.16l.12-.01 26.88 122.16h3.86s-22.55-100-26.93-120.9c-4.3-20.58-9.4-33.35-14.89-40.62a31.2 31.2 0 0 0-6.21-2.58c7.97 10.06 13.92 25.02 13.92 40a66.53 66.53 0 0 1-66.46 66.45A66.53 66.53 0 0 1 3.8 70.2c0-36.65 29.92-66.46 66.48-66.46a66.35 66.35 0 0 1 42.9 15.78 40.7 40.7 0 0 1 7.02 1.65l.01-.03a69.42 69.42 0 0 0-30.26-17.7v-.1L196.54 4z"/><path d="M54.2 140.67a32.95 32.95 0 0 1-7.14-1.96c8 9.1 19.01 16.39 29.82 20.47l2.84-3a67.47 67.47 0 0 1-25.52-15.51M151.97 135.34a66.21 66.21 0 0 1-64.07 23.04l-3.04 3.22a69.23 69.23 0 0 0 15.88 1.85 70.2 70.2 0 0 0 52.24-23.53l-1.01-4.58M176.69 17.39l-6.4 66.1h-.12c-.91-12.48-7.13-27.38-14.81-36.8-13.33-16.35-32.9-26.23-54.88-26.23-20.95 0-39.62 9.3-52.47 23.88l2.94 2.33c12.14-13.72 29.52-22.52 49.53-22.52 24.36 0 44.2 12.49 55.3 29.46 9.9 15.14 13.19 34.55 10.9 48.77a66.9 66.9 0 0 1-8.92 24.72l1.12 4.92c7.85-12.17 11.83-23 14.94-50.67 2.38-21.24 6.48-63.96 6.48-63.96z"/></g></svg>
