<svg width="26.353" height="30.512" xmlns="http://www.w3.org/2000/svg"><g fill="#18453b"><path d="M24.713 2.099s-1.582 3.401-2.39 5.09c-3.943-1.814-9.115-2.074-13.463.503-2.896 1.772-5.235 4.917-5.475 8.297-.082 2.256.896 4.724.579 6.975-.084 1.208-.36 2.416-.928 3.457-.719 1.21-1.588 2.256-3.036 2.34.323-.402 2.557-1.506 1.677-6.573-.349-2.005-3.109-6.99-.437-13.235C3.672 3.255 14.213-3.505 24.713 2.1z"/><path d="M12.636 12.099c1.364-.495 2.895-.5 4.343-.183 2.734.485 4.786 2.136 5.781 4.59 1.047 2.562 1.797 4.634 3.595 6.827.046.063-2.803-.417-2.792-.5.697-5.084-4.11-5.292-5.438-3.39 1 1.098 2.714 1.661 4.042 1.448-.287 5.046 1.125 9.63 1.041 9.62-1.14-.156-6.39-3.246-7.921-4.584-2.256.401-4.022 1.234-6.631 1.594-.083.01.475-1.928.396-2.89 0-2.658-2.036-5.147-.593-8.412.864-1.954 2.166-3.396 4.177-4.12zM14.527 10.568c.15 0 .38.036.385.02.047-.176.187-1.437 1.26-2.353 1.192-1.022 2.765-.923 2.75-.934-1.567-.473-3.177-.509-4.291-.41zM4.584 15.145c-.24 1.516-.256 2.923-.13 3.667.005.01.223-1.281.962-2.01.636-.635 1.453-.755 1.74-.745 0-.005.147-.494.125-.5zM7.61 14.87c.078-.203.171-.38.291-.61L5.12 13.183c-.172.342-.303.864-.365 1.145zM8.276 13.807c.01-.01.448-.567.453-.562l-2.541-1.912a4.922 4.922 0 00-.657 1.094zM9.224 12.765c.016-.016.568-.51.568-.51l-2.204-2.51c-.5.432-.65.624-.952.995zM10.37 11.896c.005.03.635-.35.646-.38L9.38 8.536c-.625.303-1.025.625-1.208.756zM11.584 11.235c.78-.267.78-.27.78-.256l-.932-3.354c-.515.151-1.219.454-1.38.563zM12.97 10.781c.025.016.702-.15.713-.15L13.765 7c-.025.024-.838.15-1.53.343z"/></g></svg>