<svg viewBox="0 0 143.2 132.9" xmlns="http://www.w3.org/2000/svg"><path d="M120 0c-6.9 0-13.3 3-17.8 8.3L83.6 30.7l-14-10.3a23.1 23.1 0 0 0-31.5 3.9L5.3 63.5A23.2 23.2 0 0 0 41 93.2l19-22.5 13.7 10.2a23.1 23.1 0 0 0 31.6-3.9l32.5-39.1c4-4.7 6-10.8 5.3-17-.6-6-3.5-11.6-8.2-15.6A23.8 23.8 0 0 0 120 0zm0 15.5A7.7 7.7 0 0 1 126 28L93.3 67.3a7.7 7.7 0 0 1-10.5 1.3l-25.6-19-28.1 33.7a7.6 7.6 0 0 1-10.8 1 7.7 7.7 0 0 1-1-10.8l32.9-39.3a8 8 0 0 1 5.8-2.8c1.7 0 3.2.5 4.6 1.5l25.7 18.9 28-33.5a6.9 6.9 0 0 1 5.7-2.8zm-105.6 102a7.8 7.8 0 0 0-7.7 7.7c0 4.2 3.5 7.7 7.7 7.7h114.4c4.2 0 7.8-3.5 7.8-7.7 0-4.3-3.6-7.8-7.8-7.8H14.4z" fill="#31ada8"/></svg>