<svg xmlns="http://www.w3.org/2000/svg" version="1.1" id="layer" x="0" y="0" xml:space="preserve" width="97.7" height="121.9"><style type="text/css" id="style3">.st0{fill:#7daed3}</style><path id="path43" d="M50.9 27.4c.2.2.4.2.4.2 16.9-.7 26.5 5.7 27.3 8.4l6.7-.1 2.1-4.6c.1-.4.1-.9-.1-1.1-2-2.3-19-7.1-39.5-7.1-21.8 0-35.7 4.3-38.6 6.5 0 0-.7.4-.7 1.1 0 .3.4 1.1.4 1.1l.6 1.3c.2.4.4.4.9.1 0 0 .4-.1.5-.4.1-.3-.2-.7-.2-.7-.4-.9.1-1 .2-1l1.2-.6c.6-.2.7.1.9.6 0 0 .2.7.4.8.3.2 1.3-.4 4.3-1.1.2 0 .3-.1.7-.2.3-.1 0-1.1 0-1.1-.1-.5-.3-1 .7-1.2l1.9-.4c.9-.2.9.2 1.1.7 0 0 .1.8.2 1.1.2.4.7-.2 6.4-.8 0 0 .8 0 1-.3.2-.3 0-1 0-1-.1-.7-.3-1.2 1-1.3l2.5-.2c1.9-.3 1.5.3 1.6 1 0 0 .1.7.2.9.1.1.7.1.7.1 3.2-.3 5-.3 8.3-.5 0 0 .5 0 .6-.2.2-.2.1-.4.1-.4 0-.4-.1-1 .2-1.2.3-.3.7-.2 1.2-.2h2.8c.4 0 1.3-.2 1.6.1.2.2.1 1.4.1 1.4l.3.3" class="st0" fill="#7bafd4" fill-opacity="1"/><path id="path45" d="M48 0C31.5 0 21.4 5.3 14.9 11.7c0 0-.1.1-.2.3-.1.3-.1.8.5.6 14.1-5.9 29.5-2.2 34.4 3.4.2.3 0 .3-.2.3-5 0-9.1-.2-18.3 1-5 .7-9.4 1.4-13.1 2.4-6.1 1.6-10.5 3.6-12.9 5.2-.9.5-1 .8-1.2 1.2-.3.8-.2.8-.4 1.3-.3 1-.5 1.7-.5 2-.1.6.6.4.9 0 .7-.7 2.8-2.5 5.7-3.9 3-1.4 8.1-3 13.5-4 7.3-1.3 16.1-2.2 24.1-2.2 9.4 0 17.7.9 24.8 2.3 7.1 1.4 12.8 3.3 16.4 5.1 1.7.8 2.7 1.6 3.8 2.6.9.9 1 .1.9-.1 0 0-.2-1.2-1.7-4C87 16.6 74.5 0 48 0" class="st0" fill="#7bafd4" fill-opacity="1"/><path id="path47" d="M.1 110.2c0 3.8 15.9 11.7 48.8 11.7 31.9 0 48.8-7.8 48.8-11.7l-.2-5.9c0 .1 0-.4-.1-.3-.1-1.1-1.7-1.3-6.9-1.3l-.1-3.3c0 .3-1.1 1-1.8 1.4-4.2 2.4-20.3 6-40.4 6-23.3 0-39.6-4.8-42.1-7.5l-.1 5c7.7 5.5 31.3 10.4 55.1 7.8.7 0 1-.2 1.7.1.2.1.8.6-.4 1.1-13.8 4.6-47.9 3.5-62.4-7.4l.1 4.3" class="st0" fill="#7bafd4" fill-opacity="1"/><path id="path49" d="M68.2 34.4h.3H68.2" class="st0" fill="#7bafd4" fill-opacity="1"/><path id="path51" d="M67.9 35.6v-1 1z" class="st0" fill="#7bafd4" fill-opacity="1"/><path class="st0" d="M67.9 35.7v-1 1z" id="path53" fill="#7bafd4" fill-opacity="1"/><path class="st0" d="M59.1 34c.1 0 .1 0 0 0" id="path55" fill="#7bafd4" fill-opacity="1"/><path class="st0" d="M68.4 32h-9c-.4 0-.6.2-.6.7v1c0 .5.2.7.7.7h2.8c.3 0 .3.1.3.1.1.3-.4.5-.6.6l-1.4.9c-.2.1-.4.4-.4.9l-.1 64.5c.1 1.1 1.9 1.2 3.9 1.2 1.7 0 3.6-.1 3.8-1.2 0 0-.1-61.4 0-66.7 0-.2.1-.3.2-.3s.3-.1.3-.1c.4 0 .6-.2.6-.6v-1.1c.1-.4-.1-.6-.5-.6" id="path59" fill="#7bafd4" fill-opacity="1"/><path class="st0" d="M53.6 76.9l.2-.4h.6v-.4H42v.4h.7l.2.4.8 1.6s.1.1.3.2c.2.1.5.1.6.1h3.1c.2 0 .6 0 .7.2.1.1.2.5-.3.8-1.1.7-2.9 1.9-3.7 2.4-.1 0-.4.3-.5.5-.1.3-.1.4-.1.4v12.1l-1.1.4s-.3 2.4 0 2.7c.4.2 10.5.2 10.9 0 .3-.2 0-2.7 0-2.7l-1.1-.4V78.9l1.1-2z" id="path61" fill="#7bafd4" fill-opacity="1"/><path class="st0" d="M85.9 35.5h-9c-.4 0-.6.2-.6.7v1c0 .5.2.7.7.7h2.8c.3 0 .3.1.3.1.1.3-.4.5-.6.6l-1.4.9c-.2.1-.4.4-.4.9l-.1 58.1c.1 1.1 1.9 1.2 3.9 1.2 1.7 0 3.6-.1 3.8-1.2 0 0-.1-55 0-60.3 0-.2.1-.3.2-.3s.3-.1.3-.1c.4 0 .6-.2.6-.6v-1.1c.1-.4-.2-.6-.5-.6" id="path63" fill="#7bafd4" fill-opacity="1"/><path class="st0" d="M36.7 32h-9c-.4 0-.6.2-.6.7v1c0 .5.2.7.7.7h2.8c.3 0 .3.1.3.1.1.3-.4.5-.6.6l-1.4.9c-.2.1-.4.4-.4.9v64.5c.1 1.1 1.9 1.2 3.9 1.2 1.7 0 3.6-.1 3.8-1.2 0 0-.1-61.4 0-66.7 0-.2.1-.3.2-.3s.3-.1.3-.1c.4 0 .6-.2.6-.6v-1.1c0-.4-.2-.6-.6-.6" id="path65" fill="#7bafd4" fill-opacity="1"/><path class="st0" d="M19.2 35.7h-9c-.4 0-.6.2-.6.7v1c0 .5.2.7.7.7h2.8c.3 0 .3.1.3.1.1.3-.4.5-.6.6l-1.4.9c-.2.1-.4.4-.4.9l-.1 58.2c.1 1.1 1.9 1.2 3.9 1.2 1.7 0 3.6-.1 3.8-1.2V38.5c0-.2.1-.3.2-.3s.3-.1.3-.1c.4 0 .6-.2.6-.6v-1.1c.1-.5-.2-.7-.5-.7" id="path67" fill="#7bafd4" fill-opacity="1"/></svg>